<?xml version="1.0" standalone="no"?>
<!DOCTYPE svg PUBLIC "-//W3C//DTD SVG 20010904//EN"
 "http://www.w3.org/TR/2001/REC-SVG-20010904/DTD/svg10.dtd">
<svg version="1.0" xmlns="http://www.w3.org/2000/svg"
 width="96.000000pt" height="96.000000pt" viewBox="0 0 96.000000 96.000000"
 preserveAspectRatio="xMidYMid meet">
<metadata>
Created by potrace 1.11, written by Peter Selinger 2001-2013
</metadata>
<g transform="translate(0.000000,96.000000) scale(0.100000,-0.100000)"
fill="#000000" stroke="none">
<path d="M155 656 c-178 -91 -131 -349 67 -372 44 -5 64 -2 103 15 43 19 130
81 146 104 4 5 33 -12 65 -38 81 -66 136 -88 203 -82 100 10 169 81 178 185 6
72 -24 133 -86 177 -36 25 -52 30 -104 30 -71 0 -122 -22 -199 -87 l-48 -40
-47 42 c-101 88 -192 110 -278 66z m150 -75 c22 -10 60 -37 84 -59 l43 -40
-43 -42 c-53 -50 -108 -80 -147 -80 -45 0 -95 39 -110 87 -17 53 2 104 50 133
41 25 71 25 123 1z m499 -20 c26 -27 31 -39 31 -81 0 -40 -5 -54 -29 -79 -58
-61 -134 -50 -219 30 l-52 49 47 43 c91 86 162 97 222 38z"/>
</g>
</svg>
