<?xml version="1.0" standalone="no"?>
<!DOCTYPE svg PUBLIC "-//W3C//DTD SVG 20010904//EN"
 "http://www.w3.org/TR/2001/REC-SVG-20010904/DTD/svg10.dtd">
<svg version="1.0" xmlns="http://www.w3.org/2000/svg"
 width="600.000000pt" height="600.000000pt" viewBox="0 0 600.000000 600.000000"
 preserveAspectRatio="xMidYMid meet">
<metadata>
Created by potrace 1.14, written by Peter Selinger 2001-2017
</metadata>
<g transform="translate(0.000000,600.000000) scale(0.100000,-0.100000)"
fill="#000000" stroke="none">
<path d="M2755 5249 c-4 -6 -13 -8 -20 -5 -8 3 -19 -2 -25 -10 -7 -8 -18 -14
-25 -14 -7 0 -16 -15 -22 -32 -6 -22 -15 -33 -26 -32 -9 1 -17 -2 -17 -6 0
-17 -32 -40 -56 -40 -13 0 -24 -6 -24 -13 0 -7 -10 -13 -22 -14 -13 -1 -37 -4
-53 -8 -20 -3 -44 2 -68 14 -42 21 -43 20 -20 -20 16 -27 16 -29 -3 -50 -10
-11 -32 -28 -48 -36 -27 -14 -68 -45 -183 -139 -18 -14 -33 -31 -33 -38 0 -6
-25 -31 -55 -55 -30 -24 -55 -51 -55 -59 0 -15 -33 -75 -58 -104 -8 -9 -34
-66 -59 -125 -88 -213 -124 -417 -138 -783 -2 -58 -7 -122 -10 -144 -4 -27 -1
-42 9 -50 8 -6 17 -21 20 -33 7 -21 5 -21 -26 -12 -83 26 -111 28 -140 8 -17
-13 -29 -32 -32 -52 -3 -18 -12 -78 -21 -135 -10 -56 -14 -115 -10 -130 6 -25
105 -238 158 -339 21 -39 62 -91 151 -190 24 -27 50 -45 71 -49 31 -6 32 -7
43 -77 24 -166 52 -259 111 -378 l59 -119 -45 -25 c-25 -14 -49 -25 -53 -25
-4 0 -15 -8 -24 -19 -15 -17 -37 -19 -204 -23 -210 -6 -251 -15 -342 -76 -73
-50 -135 -143 -145 -217 -6 -50 -10 -57 -47 -82 -72 -49 -146 -124 -177 -177
-28 -51 -65 -88 -154 -156 -47 -36 -57 -54 -57 -106 l0 -31 -82 -12 c-46 -6
-130 -17 -188 -25 -57 -8 -107 -13 -109 -10 -2 2 -9 0 -15 -5 -6 -4 -29 -11
-51 -14 -45 -7 -256 -66 -325 -92 -25 -9 -60 -26 -77 -38 l-33 -22 0 -412 0
-413 1052 0 1051 0 -7 158 c-3 86 -9 186 -12 222 -8 79 18 185 48 201 11 6 18
18 16 27 -3 12 7 20 32 27 40 12 43 24 9 43 -24 13 -23 13 6 7 41 -9 70 -38
60 -62 -14 -33 -15 -47 -5 -133 12 -107 17 -177 26 -352 l6 -138 339 0 c332 0
339 0 339 20 0 28 30 26 31 -2 1 -17 2 -19 6 -6 5 20 44 19 51 0 2 -7 8 -12
14 -12 12 0 2 98 -12 115 -11 13 13 83 34 98 14 11 13 15 -4 37 -23 30 -26 27
-33 -28 -6 -54 -14 -62 -26 -28 -6 14 -15 26 -21 26 -5 0 -10 12 -10 28 0 20
3 23 9 13 7 -11 10 -9 13 10 2 19 8 23 28 21 20 -2 30 6 45 34 26 48 47 58 93
42 20 -7 39 -13 41 -15 2 -1 -12 -22 -31 -45 -19 -24 -38 -49 -42 -55 -8 -14
-46 -208 -46 -235 0 -17 21 -18 313 -18 l312 0 11 34 c6 18 8 42 4 52 -3 11
-1 88 4 173 6 119 11 151 20 139 8 -11 11 21 11 136 1 83 5 170 9 194 6 30 5
42 -3 42 -19 0 4 33 36 52 17 10 34 13 42 8 19 -11 5 -30 -22 -30 -21 -1 -21
-2 5 -25 l28 -24 -16 -73 c-9 -40 -17 -98 -18 -128 -1 -72 11 -291 18 -310 5
-14 14 -137 15 -207 l1 -33 1066 0 1065 0 -3 375 -3 374 -55 56 c-30 31 -61
63 -68 71 -7 8 -18 14 -24 14 -5 0 -23 9 -39 20 -15 12 -54 28 -86 36 -32 8
-62 19 -67 25 -6 5 -20 9 -33 9 -13 0 -23 5 -23 10 0 6 -7 10 -15 10 -8 0 -32
9 -52 20 -21 11 -48 20 -60 20 -13 0 -23 4 -23 8 0 10 -99 43 -215 73 -44 11
-131 24 -194 30 -63 5 -115 10 -116 12 -1 1 -7 11 -13 22 -8 14 -12 16 -12 5
0 -13 -1 -13 -10 0 -6 10 -10 11 -10 3 0 -8 -8 -5 -20 7 -11 11 -27 20 -35 20
-8 0 -15 4 -15 9 0 5 -9 11 -20 14 -11 3 -20 12 -20 21 0 15 -11 20 -36 17 -6
-1 -17 6 -24 14 -7 8 -21 15 -31 15 -11 0 -19 5 -19 10 0 6 -8 10 -18 10 -10
0 -30 6 -44 12 -24 11 -26 17 -23 60 3 39 1 46 -11 41 -9 -3 -20 -16 -25 -29
-4 -13 -12 -24 -17 -24 -15 0 -4 63 13 72 11 7 16 21 14 46 -2 33 3 72 17 139
3 18 1 21 -12 16 -14 -5 -16 0 -12 30 4 34 1 38 -30 53 -82 39 -143 28 -308
-52 -50 -24 -95 -44 -101 -44 -5 0 -21 10 -35 23 -13 12 -51 44 -84 72 -32 27
-83 73 -112 102 -29 29 -56 53 -60 53 -30 -1 -36 -23 -43 -162 -10 -191 -31
-277 -117 -473 -48 -110 -165 -305 -183 -305 -5 0 -9 -8 -9 -17 0 -10 -11 -42
-25 -71 -14 -30 -25 -63 -25 -73 0 -22 -45 -69 -67 -69 -14 0 -31 35 -40 80
-9 47 -39 64 -63 35 -15 -18 -81 -20 -98 -3 -7 7 -12 22 -12 35 0 13 -14 38
-31 55 -30 32 -30 33 -10 42 15 6 20 16 17 32 -3 13 -1 24 3 24 11 0 11 43 -1
57 -13 16 -3 43 17 43 22 0 19 18 -5 25 -11 3 -20 12 -20 20 0 7 -6 15 -14 18
-23 9 -30 64 -12 83 9 8 16 19 16 24 0 4 17 12 37 17 45 10 56 31 13 25 -18
-3 -30 0 -30 7 0 6 9 11 20 11 11 0 29 9 40 20 21 21 50 27 50 10 0 -5 5 -10
11 -10 6 0 8 7 5 16 -5 13 -1 14 26 9 25 -6 30 -4 25 7 -3 9 7 21 29 33 19 10
34 22 34 27 0 4 5 8 11 8 6 0 34 20 62 45 29 25 56 45 62 45 5 0 20 16 33 35
12 19 27 35 32 35 6 0 10 7 10 15 0 8 4 15 9 15 5 0 13 9 16 20 4 11 17 32 31
47 13 14 24 34 24 44 0 10 4 21 10 24 6 3 10 19 10 36 0 16 5 29 10 29 18 0
41 63 27 72 -7 5 -3 8 11 8 12 0 22 5 22 11 0 6 10 24 21 41 24 33 52 118 40
118 -5 0 -12 17 -16 38 -6 29 -9 33 -14 17 -3 -11 -17 -21 -31 -23 -14 -2 -29
-10 -33 -18 -5 -8 -12 -12 -16 -10 -12 8 -69 -58 -77 -88 -3 -15 -2 -26 4 -26
6 0 18 -3 27 -7 14 -5 16 -2 11 14 -9 27 1 50 25 56 12 3 17 1 12 -6 -4 -6 -6
-26 -5 -43 2 -18 -2 -35 -8 -39 -5 -3 -7 -17 -4 -29 7 -29 -29 -66 -63 -66
-13 0 -23 -6 -23 -12 0 -9 -3 -8 -10 2 -13 22 -22 6 -22 -39 1 -26 -5 -45 -19
-57 -11 -10 -19 -12 -19 -6 0 7 -7 12 -16 12 -11 0 -14 5 -10 16 4 9 2 22 -3
28 -19 22 -23 82 -8 98 13 13 10 16 -29 31 -30 11 -44 12 -44 5 0 -6 -7 -20
-17 -30 -15 -17 -14 -18 16 -24 31 -7 33 -9 29 -45 -2 -26 1 -40 10 -44 11 -4
12 -9 3 -19 -9 -11 -7 -15 9 -19 14 -4 20 -13 20 -32 0 -20 -4 -26 -15 -21 -9
3 -15 1 -14 -7 7 -54 -15 -63 -36 -14 -12 28 -14 30 -21 13 -5 -12 -3 -21 4
-24 15 -5 16 -32 2 -33 -46 -5 -55 -2 -55 16 0 13 -7 20 -20 20 -17 0 -20 6
-17 41 2 30 -1 43 -12 47 -27 11 -19 30 9 23 20 -5 25 -3 25 13 0 11 -5 23
-12 27 -16 10 -50 -35 -43 -57 9 -26 -4 -24 -39 6 -16 14 -35 25 -42 25 -19 0
-27 -19 -14 -35 14 -17 4 -55 -15 -55 -7 0 -16 8 -19 17 -5 12 -10 13 -18 5
-12 -12 -41 -4 -32 9 3 5 -2 16 -10 25 -20 20 -20 34 -1 34 10 0 15 10 15 34
0 19 4 38 10 41 15 9 12 35 -4 35 -22 0 -40 28 -28 43 7 8 7 18 2 27 -6 8 -10
18 -10 23 0 12 28 8 33 -5 6 -17 46 31 47 55 0 10 5 15 10 12 11 -7 13 9 4 43
-5 17 -11 21 -27 16 -17 -5 -19 -3 -15 20 3 14 1 26 -4 26 -4 0 -13 11 -19 24
-8 16 -23 26 -44 30 -29 6 -33 11 -37 41 -2 19 -3 35 -2 35 1 0 18 -7 37 -15
45 -19 47 -19 47 0 0 10 10 15 28 15 15 0 38 7 51 16 18 13 43 16 105 15 91
-2 112 -14 122 -67 3 -19 10 -37 15 -40 5 -3 9 -22 9 -43 0 -63 18 -100 53
-109 37 -10 48 3 21 23 -18 12 -14 28 7 31 5 1 13 2 19 3 5 0 10 16 9 34 0 17
6 56 14 84 9 29 13 68 10 87 -3 19 -1 36 6 40 19 12 13 56 -7 56 -22 0 -45 44
-37 70 3 10 0 22 -7 26 -6 4 -14 2 -16 -4 -5 -17 -42 9 -42 30 0 10 -4 18 -9
18 -13 0 -40 -40 -37 -54 2 -6 1 -8 -1 -3 -3 4 -11 7 -18 7 -19 0 -27 -41 -10
-54 25 -20 23 -67 -5 -88 -25 -19 -26 -18 -99 12 -40 16 -96 32 -124 35 -29 3
-65 8 -80 13 -26 7 -27 9 -13 27 15 20 15 20 30 0 16 -20 16 -20 22 3 7 24 19
29 29 12 5 -8 11 -8 19 -1 7 6 22 8 34 4 16 -4 27 0 37 13 13 18 14 18 32 1
11 -9 23 -17 26 -17 14 0 6 46 -13 75 -11 17 -20 38 -20 48 0 17 -1 17 -16 3
-20 -21 -34 -20 -34 2 -1 27 -31 60 -72 77 -21 8 -38 12 -38 8 0 -5 -5 0 -11
10 -5 9 -18 17 -28 17 -10 0 -26 9 -36 20 -21 24 -14 53 12 43 27 -10 90 -51
98 -63 10 -16 53 -12 75 7 36 31 20 114 -26 135 -25 12 -31 11 -96 -17 -15 -6
-18 -2 -18 29 0 23 -5 36 -13 36 -18 0 -64 91 -58 114 1 5 -2 21 -8 35 -5 14
-12 57 -14 95 -2 41 -9 71 -17 76 -9 5 -11 21 -7 50 3 24 1 53 -4 66 -10 27 1
62 26 87 15 16 18 16 40 -1 14 -9 25 -21 25 -27 0 -5 9 -21 20 -35 11 -14 20
-31 20 -38 0 -16 80 -204 92 -217 5 -5 2 10 -7 35 -41 113 -60 221 -25 143 29
-65 55 -53 30 13 -8 19 -8 30 0 38 24 24 -2 88 -29 72 -5 -4 -10 2 -10 11 0
10 -3 41 -5 68 -5 55 4 74 44 94 22 11 21 10 -5 -13 -21 -18 -26 -28 -18 -33
6 -5 13 -26 15 -48 2 -30 9 -42 26 -50 12 -5 22 -17 22 -25 0 -8 9 -21 20 -28
11 -7 20 -23 20 -36 0 -12 9 -31 20 -41 11 -10 20 -26 20 -35 0 -11 20 -23 68
-38 38 -12 75 -22 83 -22 24 0 47 -34 36 -52 -12 -18 -1 -52 13 -43 6 4 8 15
5 26 -4 11 -2 19 5 19 6 0 8 -4 5 -10 -3 -5 -1 -10 4 -10 6 0 11 5 11 10 0 6
5 10 11 10 5 0 7 -5 3 -12 -4 -7 -3 -8 5 -4 6 4 9 16 6 27 -8 23 11 25 39 4
24 -18 26 -18 48 -1 16 12 17 16 3 43 -12 25 -24 32 -58 37 -36 6 -101 33 -87
36 3 1 16 3 30 5 14 1 39 7 55 13 17 6 43 14 58 17 24 5 27 8 16 21 -8 10 -15
12 -23 4 -15 -15 -49 -13 -43 3 4 10 -2 13 -19 9 -26 -5 -32 9 -10 27 14 12
46 5 46 -9 0 -5 16 -6 35 -3 31 5 35 3 35 -17 0 -19 59 -89 61 -72 0 4 4 -3 9
-16 8 -19 13 -21 30 -12 11 6 20 16 20 22 0 6 7 16 15 22 8 6 18 26 21 44 5
27 3 32 -12 34 -11 0 -24 2 -31 2 -6 1 -26 19 -43 41 -38 48 -117 115 -136
115 -19 0 -64 22 -64 31 0 5 7 6 15 3 10 -4 13 -2 10 8 -13 32 197 50 315 27
82 -17 93 -24 84 -62 -4 -18 -6 -47 -6 -66 1 -19 -6 -46 -15 -62 -16 -26 -15
-30 8 -73 13 -25 27 -46 30 -46 3 0 6 -21 5 -47 0 -27 3 -79 6 -118 4 -38 7
-73 8 -77 0 -5 6 -8 14 -8 28 0 31 -43 10 -152 -5 -26 -3 -28 29 -28 49 0 75
27 83 88 l6 51 -57 56 -57 57 8 51 c4 29 8 81 9 117 1 67 11 102 24 81 5 -8
15 -5 31 9 16 14 18 20 8 20 -8 0 -23 7 -34 16 -18 15 -18 15 0 10 17 -6 18
-2 14 43 -3 28 -1 48 4 45 4 -3 8 -14 8 -25 0 -13 4 -18 11 -13 8 5 10 33 5
93 -10 141 -39 346 -49 352 -5 4 -5 9 2 13 6 4 8 24 5 49 -3 23 -5 50 -5 59 0
10 -4 20 -10 23 -5 4 -9 26 -9 51 0 32 -4 44 -15 44 -8 0 -12 6 -9 15 7 17
-11 106 -30 149 -8 17 -26 56 -39 86 -14 31 -32 61 -40 68 -8 7 -21 27 -28 45
-7 18 -32 61 -55 97 -23 36 -45 83 -49 103 -4 21 -12 41 -19 45 -12 8 -25 27
-56 85 -21 38 -40 49 -40 21 0 -13 -3 -13 -27 2 -16 9 -44 36 -63 59 -31 38
-41 44 -87 50 -55 8 -70 21 -30 27 17 3 11 7 -23 16 -25 7 -62 22 -83 32 -22
11 -44 20 -50 20 -7 0 -25 7 -41 15 -16 9 -36 13 -43 11 -22 -9 -63 12 -57 28
4 11 -9 16 -59 21 -36 4 -74 4 -86 0 -14 -4 -23 -1 -27 9 -4 11 -20 15 -56 14
-34 0 -46 -3 -37 -9 8 -5 9 -9 3 -9 -6 0 -17 7 -24 15 -7 8 -21 15 -32 15 -10
0 -32 7 -48 15 -20 10 -31 12 -35 4z m-365 -249 c0 -5 -4 -10 -10 -10 -5 0
-10 5 -10 10 0 6 5 10 10 10 6 0 10 -4 10 -10z m645 -110 c4 -6 10 -8 15 -5 5
3 11 1 15 -5 4 -6 10 -8 14 -6 8 5 139 -25 183 -42 26 -11 75 -3 123 18 55 24
83 18 135 -29 28 -25 70 -63 95 -85 48 -41 142 -174 152 -215 3 -14 23 -53 43
-86 82 -137 139 -291 156 -420 10 -83 4 -338 -9 -351 -5 -6 -177 25 -192 34
-5 4 -20 5 -32 3 -21 -2 -28 7 -24 31 2 14 -43 32 -47 20 -2 -8 -12 -7 -32 3
-16 8 -35 15 -43 15 -8 0 -27 10 -42 21 -22 18 -29 19 -35 8 -7 -11 -12 -10
-28 4 -11 10 -43 19 -78 23 -32 3 -60 7 -63 9 -2 3 -11 0 -21 -5 -17 -9 -97 0
-131 14 -12 5 -19 0 -24 -16 -4 -13 -6 -29 -6 -35 3 -23 -18 -14 -36 15 -10
15 -20 29 -23 32 -3 3 -6 14 -8 25 -2 11 -6 35 -9 52 -3 18 -9 30 -14 27 -15
-9 -23 27 -11 47 7 11 8 20 2 24 -9 6 -31 50 -44 88 -10 32 -33 19 -40 -24 -4
-22 -4 -44 -1 -49 3 -5 9 -51 14 -102 8 -83 7 -95 -10 -116 -10 -13 -15 -30
-12 -38 3 -8 -1 -14 -8 -14 -11 0 -11 -2 1 -10 8 -5 11 -12 8 -15 -13 -14 -28
7 -28 39 0 23 -10 43 -34 69 -24 27 -32 44 -30 64 2 16 1 20 -2 11 -5 -16 -7
-16 -20 -4 -8 8 -14 21 -14 28 0 8 -9 14 -20 15 -20 2 -24 -9 -20 -54 4 -57
-54 -62 -65 -6 -3 15 -9 40 -14 55 -6 17 -5 30 2 37 8 8 5 11 -11 11 -29 0
-44 33 -37 78 8 49 18 57 52 39 15 -8 47 -19 71 -24 38 -9 44 -8 53 9 6 11 11
32 11 48 1 20 7 32 20 35 10 4 18 16 18 28 0 12 9 33 19 46 20 26 15 53 -15
91 -6 8 -9 21 -7 27 3 7 -2 16 -11 19 -25 10 -20 61 9 88 25 23 34 56 15 56
-5 0 -10 9 -10 21 0 12 -21 42 -50 70 -27 27 -50 57 -50 68 0 10 -18 30 -40
46 -43 30 -47 48 -12 53 12 2 20 8 17 13 -13 21 16 47 57 53 82 10 118 18 124
27 7 12 81 11 89 -1z m845 -370 c0 -5 -4 -10 -10 -10 -5 0 -10 5 -10 10 0 6 5
10 10 10 6 0 10 -4 10 -10z m-894 -827 c-2 -3 -14 -2 -27 2 -16 6 -18 9 -8 16
13 7 45 -9 35 -18z m80 -42 c-3 -5 1 -14 9 -21 27 -23 18 -40 -22 -40 -53 0
-83 10 -83 26 0 8 -4 14 -9 14 -5 0 -11 7 -15 15 -4 12 6 15 60 15 36 0 63 -4
60 -9z m-12 -101 c19 -7 26 -17 26 -35 0 -31 -11 -32 -48 0 -16 14 -40 29 -53
34 -22 9 -21 10 13 10 20 1 48 -3 62 -9z m79 -857 c2 -5 -11 -23 -29 -40 l-33
-33 -9 33 c-10 38 -8 44 12 28 11 -9 15 -8 20 4 6 16 32 21 39 8z m4 -139 c-9
-9 -28 6 -21 18 4 6 10 6 17 -1 6 -6 8 -13 4 -17z m263 -44 c0 -5 -2 -10 -4
-10 -3 0 -8 5 -11 10 -3 6 -1 10 4 10 6 0 11 -4 11 -10z m70 -50 c0 -5 -2 -10
-4 -10 -3 0 -8 5 -11 10 -3 6 -1 10 4 10 6 0 11 -4 11 -10z m304 -338 c3 -5
-7 -24 -23 -42 -31 -37 -41 -32 -34 18 4 25 10 32 29 32 12 0 25 -4 28 -8z
m-700 -221 c8 -13 -3 -38 -20 -45 -10 -4 -14 3 -14 24 0 29 21 42 34 21z m171
-195 c-3 -6 -8 -19 -11 -28 -7 -21 -20 -23 -30 -6 -4 6 -2 14 4 16 7 2 12 12
12 23 0 12 5 16 15 12 9 -3 13 -11 10 -17z m1247 -378 c-7 -7 -12 -8 -12 -2 0
14 12 26 19 19 2 -3 -1 -11 -7 -17z m-1744 -475 c15 -10 32 -23 37 -29 6 -6
29 -17 53 -24 38 -12 43 -16 37 -37 -4 -16 -1 -23 10 -23 8 0 15 -7 15 -15 0
-16 9 -18 48 -15 20 1 22 -3 22 -44 0 -25 -5 -48 -11 -52 -6 -3 -9 -19 -7 -35
3 -16 0 -29 -6 -29 -5 0 -1 -6 9 -14 18 -13 17 -14 -13 -30 -31 -16 -43 -36
-22 -36 6 0 10 -4 10 -10 0 -5 -9 -10 -20 -10 -12 0 -20 7 -20 16 0 19 -29 15
-43 -7 -6 -9 -7 -24 -2 -35 4 -11 7 -26 7 -34 -1 -8 20 -33 48 -55 49 -40 63
-65 35 -65 -8 0 -15 5 -15 10 0 17 -29 11 -50 -10 -15 -15 -25 -18 -38 -11
-21 11 -67 60 -61 64 2 2 17 11 33 21 l29 19 -58 54 c-75 70 -235 173 -317
204 -27 10 -39 39 -18 39 5 0 9 -6 7 -12 -4 -22 66 -9 84 14 9 12 21 18 26 15
6 -4 25 7 42 23 24 23 31 39 31 68 0 35 20 77 44 94 18 13 45 9 74 -9z m312
-524 c0 -5 -4 -9 -10 -9 -5 0 -10 7 -10 16 0 8 5 12 10 9 6 -3 10 -10 10 -16z
m-70 -5 c0 -2 -11 -4 -25 -4 -14 0 -25 4 -25 9 0 4 11 6 25 3 14 -2 25 -6 25
-8z m-20 -145 c0 -6 -4 -7 -10 -4 -5 3 -10 11 -10 16 0 6 5 7 10 4 6 -3 10
-11 10 -16z m20 -117 c0 -7 -4 -10 -10 -7 -5 3 -10 16 -10 28 0 18 2 19 10 7
5 -8 10 -21 10 -28z"/>
<path d="M4194 3408 c-6 -7 -9 -49 -8 -93 1 -44 -2 -111 -8 -148 -16 -109 5
-124 45 -32 16 35 17 56 10 159 -8 115 -18 144 -39 114z"/>
<path d="M3898 3393 c7 -3 16 -2 19 1 4 3 -2 6 -13 5 -11 0 -14 -3 -6 -6z"/>
<path d="M3305 2591 c-3 -5 -1 -12 5 -16 5 -3 10 1 10 9 0 18 -6 21 -15 7z"/>
<path d="M3592 1975 c0 -16 2 -22 5 -12 2 9 2 23 0 30 -3 6 -5 -1 -5 -18z"/>
<path d="M3630 1959 c0 -11 5 -17 10 -14 6 3 10 13 10 21 0 8 -4 14 -10 14 -5
0 -10 -9 -10 -21z"/>
</g>
</svg>
